<svg width="13" height="12" viewBox="0 0 13 12" fill="none" xmlns="http://www.w3.org/2000/svg">
<path d="M10.1767 11.6693C9.62445 11.6693 9.15583 11.4762 8.77083 11.0901C8.38639 10.7034 8.19417 10.234 8.19417 9.68178C8.19417 9.59844 8.23083 9.38817 8.30417 9.05094L3.47167 7.02844C3.29167 7.23622 3.07139 7.39928 2.81083 7.51761C2.55028 7.63594 2.27056 7.69511 1.97167 7.69511C1.42389 7.69511 0.958333 7.50011 0.575 7.11011C0.191667 6.72011 0 6.25261 0 5.70761C0 5.16261 0.191667 4.69511 0.575 4.30511C0.958333 3.91511 1.42389 3.72011 1.97167 3.72011C2.27 3.72011 2.54972 3.77928 2.81083 3.89761C3.07194 4.01594 3.29222 4.17928 3.47167 4.38761L8.305 2.96522C8.26611 2.85744 8.23806 2.7505 8.22083 2.64439C8.20306 2.53772 8.19417 2.42883 8.19417 2.31772C8.19417 1.76605 8.38778 1.29689 8.775 0.910221C9.16222 0.52411 9.63222 0.331055 10.185 0.331055C10.7378 0.331055 11.2067 0.524666 11.5917 0.911888C11.9767 1.29911 12.1689 1.76911 12.1683 2.32189C12.1678 2.87467 11.9747 3.34355 11.5892 3.72855C11.2036 4.11355 10.7342 4.30578 10.1808 4.30522C9.87972 4.30522 9.60194 4.24355 9.3475 4.12022C9.09306 3.99689 8.87639 3.83105 8.6975 3.62272L3.86333 5.06011C3.90222 5.16789 3.93028 5.27511 3.9475 5.38178C3.96528 5.48789 3.97417 5.5965 3.97417 5.70761C3.97417 5.81872 3.96528 5.92733 3.9475 6.03344C3.92972 6.13955 3.90195 6.24678 3.86417 6.35511L8.6975 8.37761C8.87694 8.16928 9.09361 8.00344 9.3475 7.88011C9.60194 7.75678 9.87972 7.69511 10.1808 7.69511C10.7331 7.69511 11.2025 7.88844 11.5892 8.27511C11.9753 8.66289 12.1683 9.13317 12.1683 9.68594C12.1683 10.2387 11.9747 10.7076 11.5875 11.0926C11.2003 11.4776 10.7294 11.6698 10.1767 11.6693ZM10.1808 10.8359C10.5081 10.8359 10.7822 10.7254 11.0033 10.5043C11.2244 10.2832 11.335 10.0093 11.335 9.68261C11.335 9.35594 11.2244 9.08178 11.0033 8.86011C10.7822 8.63844 10.5083 8.52789 10.1817 8.52844C9.855 8.529 9.58083 8.63955 9.35917 8.86011C9.1375 9.08066 9.02695 9.35455 9.0275 9.68178C9.02806 10.009 9.13861 10.2832 9.35917 10.5043C9.57972 10.7254 9.85306 10.8359 10.1808 10.8359ZM1.97167 6.86094C2.30278 6.86094 2.58056 6.75039 2.805 6.52928C3.02889 6.30817 3.14083 6.03428 3.14083 5.70761C3.14083 5.38094 3.02889 5.10706 2.805 4.88594C2.58111 4.66483 2.30333 4.55428 1.97167 4.55428C1.64889 4.55428 1.37861 4.66483 1.16083 4.88594C0.943056 5.10706 0.833889 5.38094 0.833333 5.70761C0.832778 6.03428 0.941945 6.30844 1.16083 6.53011C1.37972 6.75178 1.65 6.86205 1.97167 6.86094ZM10.1817 3.47189C10.5083 3.47189 10.7822 3.36133 11.0033 3.14022C11.2244 2.91911 11.335 2.64494 11.335 2.31772C11.335 1.9905 11.2244 1.71661 11.0033 1.49605C10.7822 1.2755 10.5083 1.16494 10.1817 1.16439C9.855 1.16383 9.58083 1.27439 9.35917 1.49605C9.1375 1.71772 9.02695 1.99189 9.0275 2.31855C9.02806 2.64522 9.13861 2.91911 9.35917 3.14022C9.57972 3.36133 9.85389 3.47189 10.1817 3.47189Z" fill="black"/>
</svg>
