<svg width="16" height="16" viewBox="0 0 16 16" fill="none" xmlns="http://www.w3.org/2000/svg">
<g clip-path="url(#clip0_240_235)">
<path d="M14.5775 15.1108H5.86634C5.72489 15.1108 5.58924 15.0546 5.48922 14.9546C5.3892 14.8546 5.33301 14.7189 5.33301 14.5775V5.86634C5.33301 5.72489 5.3892 5.58924 5.48922 5.48922C5.58924 5.3892 5.72489 5.33301 5.86634 5.33301H14.5775C14.7189 5.33301 14.8546 5.3892 14.9546 5.48922C15.0546 5.58924 15.1108 5.72489 15.1108 5.86634V14.5775C15.1108 14.7189 15.0546 14.8546 14.9546 14.9546C14.8546 15.0546 14.7189 15.1108 14.5775 15.1108Z" stroke="#676B5F" stroke-linecap="round" stroke-linejoin="round"/>
<path d="M10.6664 5.33312V1.42201C10.6664 1.28056 10.6103 1.1449 10.5102 1.04488C10.4102 0.944862 10.2746 0.888672 10.1331 0.888672H1.42201C1.28056 0.888672 1.1449 0.944862 1.04488 1.04488C0.944862 1.1449 0.888672 1.28056 0.888672 1.42201V10.1331C0.888672 10.2746 0.944862 10.4102 1.04488 10.5102C1.1449 10.6103 1.28056 10.6664 1.42201 10.6664H5.33312" stroke="#676B5F" stroke-linecap="round" stroke-linejoin="round"/>
</g>
<defs>
<clipPath id="clip0_240_235">
<rect width="16" height="16" fill="white"/>
</clipPath>
</defs>
</svg>
