<svg width="24" height="24" viewBox="0 0 24 24" fill="none" xmlns="http://www.w3.org/2000/svg">
<g opacity="0.65">
<path d="M20.9681 18.4478C20.9584 18.7929 20.8794 19.1326 20.7358 19.4467C20.5923 19.7607 20.3871 20.0427 20.1325 20.2759C19.8778 20.5091 19.5789 20.6887 19.2535 20.8041C18.928 20.9196 18.5827 20.9684 18.2381 20.9478C16.0851 20.9598 13.9321 20.9478 11.7791 20.9478C11.6464 20.9478 11.5193 20.8951 11.4255 20.8013C11.3317 20.7076 11.2791 20.5804 11.2791 20.4478C11.2791 20.3152 11.3317 20.188 11.4255 20.0942C11.5193 20.0004 11.6464 19.9478 11.7791 19.9478C13.9791 19.9478 16.1791 19.9798 18.3791 19.9478C19.4861 19.9318 19.9681 19.0998 19.9681 18.1098V5.64677C19.9752 5.33215 19.8864 5.02281 19.7135 4.75987C19.5406 4.49693 19.2918 4.29285 19.0001 4.17477C18.6549 4.08006 18.2956 4.04789 17.9391 4.07977H11.7791C11.6464 4.07977 11.5193 4.02709 11.4255 3.93332C11.3317 3.83956 11.2791 3.71238 11.2791 3.57977C11.2791 3.44716 11.3317 3.31998 11.4255 3.22622C11.5193 3.13245 11.6464 3.07977 11.7791 3.07977C14.0031 3.07977 16.2441 2.99477 18.4661 3.07977C18.8063 3.08838 19.1415 3.16457 19.452 3.30391C19.7626 3.44326 20.0423 3.64298 20.275 3.89144C20.5076 4.13991 20.6885 4.43216 20.8072 4.75119C20.9258 5.07022 20.9798 5.40967 20.9661 5.74977L20.9681 18.4478Z" fill="black"/>
<path d="M3.17605 11.6629C3.092 11.7451 3.04261 11.8564 3.03805 11.9739C3.03939 11.9879 3.03739 12.0022 3.03205 12.0169C3.02405 12.0389 3.03205 12.0439 3.03805 12.0579C3.04236 12.1757 3.09176 12.2874 3.17605 12.3699L6.84505 16.0389C6.93935 16.13 7.06565 16.1804 7.19675 16.1792C7.32785 16.1781 7.45326 16.1255 7.54596 16.0328C7.63867 15.9401 7.69125 15.8147 7.69239 15.6836C7.69353 15.5525 7.64313 15.4262 7.55205 15.3319L4.73705 12.5159H15.4791C15.6117 12.5159 15.7388 12.4632 15.8326 12.3694C15.9264 12.2757 15.9791 12.1485 15.9791 12.0159C15.9791 11.8833 15.9264 11.7561 15.8326 11.6623C15.7388 11.5686 15.6117 11.5159 15.4791 11.5159H4.73705L7.55205 8.69989C7.64313 8.60559 7.69353 8.47929 7.69239 8.34819C7.69125 8.2171 7.63867 8.09169 7.54596 7.99899C7.45326 7.90628 7.32785 7.8537 7.19675 7.85256C7.06565 7.85142 6.93935 7.90182 6.84505 7.99289L3.17605 11.6629Z" fill="black"/>
</g>
</svg>
