<svg width="24" height="22" viewBox="0 0 24 22" fill="none" xmlns="http://www.w3.org/2000/svg">
<g clip-path="url(#clip0_168_404)">
<path fill-rule="evenodd" clip-rule="evenodd" d="M16.869 6.81169C17.065 6.77944 17.2654 6.84251 17.4082 6.98128C19.0685 8.59573 19.9829 10.7565 19.9829 13.0655C19.9829 17.7478 16.1738 21.5571 11.4917 21.5571C7.61869 21.5571 4.24004 18.935 3.27545 15.1806C3.09267 14.4683 3 13.7567 3 13.0655C3 11.7085 3.31699 10.4041 3.94219 9.18847C4.55746 7.9934 5.46217 6.94694 6.55862 6.16191C6.56499 6.15735 6.57148 6.15291 6.57801 6.14855C6.61842 6.12191 6.66157 6.09034 6.70727 6.05689L6.71197 6.05346C6.71658 6.05009 6.72118 6.04671 6.72579 6.04334C6.7441 6.02994 6.76242 6.01653 6.78085 6.00325C8.52423 4.75571 9.61918 2.82175 9.7866 0.69601C9.8031 0.486216 9.92357 0.298658 10.1075 0.196357C10.2915 0.0940983 10.5143 0.0907064 10.7012 0.187312C12.8488 1.29729 14.4254 3.27551 15.0266 5.61469C15.2095 6.32686 15.3022 7.03844 15.3022 7.72992C15.3022 8.0903 15.2787 8.44971 15.232 8.80699C15.7003 8.3124 16.0984 7.75291 16.4118 7.14409C16.5029 6.96713 16.6725 6.8438 16.869 6.81169ZM11 17.1172C12.6569 17.1172 14 15.5502 14 13.6172C14 11.6842 12.6569 10.1172 11 10.1172C9.34315 10.1172 8 11.6842 8 13.6172C8 15.5502 9.34315 17.1172 11 17.1172Z" fill="white" fill-opacity="0.72"/>
</g>
<defs>
<clipPath id="clip0_168_404">
<rect width="23.8187" height="21.4162" fill="white" transform="translate(0 0.128906)"/>
</clipPath>
</defs>
</svg>
