<svg width="93" height="26" viewBox="0 0 93 26" fill="none" xmlns="http://www.w3.org/2000/svg">
<g clip-path="url(#clip0_179_549)">
<path d="M18.2367 7.62434C18.0781 7.4702 17.8555 7.40015 17.6377 7.43597C17.4195 7.47164 17.2311 7.60862 17.1299 7.80519C16.7818 8.48144 16.3396 9.1029 15.8194 9.65226C15.8713 9.25541 15.8974 8.85619 15.8974 8.4559C15.8974 7.68783 15.7945 6.89744 15.5913 6.10639C14.9235 3.50813 13.1723 1.31081 10.7869 0.0778914C10.5792 -0.0294141 10.3317 -0.0256465 10.1274 0.0879382C9.92308 0.201569 9.78926 0.409901 9.77093 0.642931C9.58497 3.00412 8.36875 5.15227 6.43228 6.53799C6.40665 6.55645 6.38121 6.57515 6.35576 6.59376C6.30306 6.63231 6.25339 6.66878 6.20697 6.69939C6.19971 6.70422 6.1925 6.70915 6.18543 6.71422C4.96754 7.5862 3.96262 8.74856 3.27921 10.076C2.58477 11.4262 2.23267 12.8751 2.23267 14.3824C2.23267 15.1502 2.3356 15.9406 2.53863 16.7318C3.61006 20.902 7.36291 23.8146 11.6649 23.8146C16.8656 23.8146 21.0966 19.5833 21.0966 14.3824C21.0966 11.8177 20.0809 9.41761 18.2367 7.62434Z" fill="black"/>
<circle cx="11.206" cy="14.0107" r="2.80172" fill="white"/>
</g>
<path d="M87.5729 8.19043V6.6636H87.0998V6.3257H88.4264V6.6636H87.9608V8.19043H87.5729ZM88.6185 8.19043V6.3257H88.994L89.6923 7.2518H89.5171L90.1954 6.3257H90.5709V8.19043H90.1829V6.75371L90.3381 6.78875L89.6197 7.71486H89.5697L88.8763 6.78875L89.0065 6.75371V8.19043H88.6185Z" fill="black"/>
<path d="M32.0668 21.8188C31.2332 21.8188 30.4474 21.67 29.7091 21.3723C28.9828 21.0627 28.3517 20.6281 27.8158 20.0684C27.2919 19.5088 26.899 18.8479 26.637 18.0859L28.9054 17.0678C29.2388 17.7941 29.6972 18.3657 30.2807 18.7825C30.876 19.1992 31.5309 19.4076 32.2454 19.4076C32.6264 19.4076 32.9539 19.3481 33.2277 19.229C33.5016 19.1099 33.7159 18.9492 33.8707 18.7467C34.0255 18.5324 34.1029 18.2823 34.1029 17.9966C34.1029 17.687 34.0077 17.425 33.8171 17.2107C33.6266 16.9845 33.3289 16.8058 32.9241 16.6749L30.3164 15.8175C29.2566 15.4722 28.4588 14.984 27.923 14.3529C27.3872 13.7099 27.1193 12.9419 27.1193 12.0489C27.1193 11.263 27.3098 10.5724 27.6908 9.97699C28.0838 9.38162 28.6255 8.91724 29.3162 8.58383C30.0187 8.25043 30.8224 8.08372 31.7274 8.08372C32.5252 8.08372 33.2634 8.22066 33.9422 8.49453C34.6209 8.7684 35.2043 9.15538 35.6925 9.65549C36.1926 10.1556 36.5677 10.7569 36.8178 11.4595L34.5673 12.4775C34.3172 11.8583 33.9422 11.3761 33.4421 11.0308C32.9419 10.6736 32.3704 10.495 31.7274 10.495C31.3583 10.495 31.0308 10.5545 30.745 10.6736C30.4593 10.7926 30.239 10.9653 30.0842 11.1915C29.9294 11.4059 29.852 11.6559 29.852 11.9417C29.852 12.2513 29.9532 12.5252 30.1556 12.7633C30.3581 12.9895 30.6617 13.1682 31.0665 13.2991L33.6207 14.1207C34.6923 14.4661 35.4901 14.9483 36.014 15.5675C36.5499 16.1867 36.8178 16.9428 36.8178 17.8358C36.8178 18.6098 36.6154 19.3004 36.2105 19.9077C35.8057 20.5031 35.246 20.9734 34.5316 21.3187C33.829 21.6521 33.0074 21.8188 32.0668 21.8188ZM38.7907 21.6045V8.29806H43.899C44.8158 8.29806 45.6255 8.4588 46.3281 8.7803C47.0425 9.1018 47.6021 9.57809 48.007 10.2092C48.4118 10.8403 48.6143 11.6202 48.6143 12.549C48.6143 13.4539 48.4059 14.222 47.9891 14.853C47.5843 15.4841 47.0246 15.9664 46.3102 16.2998C45.6077 16.6213 44.8039 16.782 43.899 16.782H41.5592V21.6045H38.7907ZM41.5592 14.3708H43.9168C44.3098 14.3708 44.6491 14.2934 44.9349 14.1386C45.2207 13.9838 45.441 13.7695 45.5958 13.4956C45.7625 13.2217 45.8458 12.9062 45.8458 12.549C45.8458 12.1798 45.7625 11.8583 45.5958 11.5845C45.441 11.3106 45.2207 11.0963 44.9349 10.9415C44.6491 10.7867 44.3098 10.7093 43.9168 10.7093H41.5592V14.3708ZM48.3436 21.6045L52.8445 8.29806H56.5239L61.0249 21.6045H58.0064L57.1133 18.8896H52.2373L51.3442 21.6045H48.3436ZM53.0053 16.4784H56.3453L54.3091 10.1913H55.0593L53.0053 16.4784ZM62.4077 21.6045V8.29806H67.4981C68.4149 8.29806 69.2246 8.4588 69.9272 8.7803C70.6416 9.1018 71.2013 9.57809 71.6061 10.2092C72.0109 10.8403 72.2134 11.6202 72.2134 12.549C72.2134 13.4539 72.005 14.2279 71.5882 14.8709C71.1715 15.502 70.6118 15.9783 69.9093 16.2998L72.9457 21.6045H69.8379L66.5514 15.7282L68.3375 16.782H65.1761V21.6045H62.4077ZM65.1761 14.3708H67.5159C67.9089 14.3708 68.2482 14.2934 68.534 14.1386C68.8198 13.9838 69.0401 13.7695 69.1949 13.4956C69.3616 13.2217 69.4449 12.9062 69.4449 12.549C69.4449 12.1798 69.3616 11.8583 69.1949 11.5845C69.0401 11.3106 68.8198 11.0963 68.534 10.9415C68.2482 10.7867 67.9089 10.7093 67.5159 10.7093H65.1761V14.3708ZM74.3208 21.6045V8.29806H77.0893V14.9602L76.3213 14.6923L81.6438 8.29806H85.1089L79.8399 14.6566L80.0006 12.6919L85.216 21.6045H81.9832L78.7325 15.9783L77.0893 17.9609V21.6045H74.3208Z" fill="black"/>
<defs>
<clipPath id="clip0_179_549">
<rect width="23.8146" height="23.8146" fill="white"/>
</clipPath>
</defs>
</svg>
