<svg width="17" height="17" viewBox="0 0 17 17" fill="none" xmlns="http://www.w3.org/2000/svg">
<g clip-path="url(#clip0_61_587)">
<path fill-rule="evenodd" clip-rule="evenodd" d="M11.6247 12.5764L10.0873 11.0389C9.59681 11.3883 8.99677 11.5938 8.34873 11.5938C6.69187 11.5938 5.34873 10.2506 5.34873 8.59379C5.34873 7.94575 5.5542 7.3457 5.90355 6.85523L4.2523 5.20398C3.23951 6.04358 2.29897 7.19034 1.43355 8.59379C3.37232 11.7378 5.68814 13.5933 8.34873 13.5933C9.49845 13.5933 10.5938 13.2384 11.6247 12.5764ZM12.4405 11.978L10.7943 10.3318C11.1434 9.84141 11.3487 9.24158 11.3487 8.59379C11.3487 6.93693 10.0056 5.59379 8.34873 5.59379C7.70094 5.59379 7.1011 5.7991 6.61074 6.14821L5.06779 4.60525C6.09411 3.94663 7.18865 3.59379 8.34873 3.59379C11.0092 3.59379 13.3251 5.44962 15.2638 8.59373C14.3997 9.99393 13.455 11.1388 12.4405 11.978ZM13.1502 12.6876C14.3176 11.7024 15.3621 10.384 16.278 8.85012V8.33745C14.2476 4.93703 11.6166 2.59379 8.34873 2.59379C6.88821 2.59379 5.55493 3.06183 4.34563 3.8831L2.70228 2.23975L1.99517 2.94685L3.54271 4.49439C2.37679 5.48052 1.33682 6.80108 0.419434 8.33745V8.85012C2.44989 12.2506 5.08083 14.5933 8.34873 14.5933C9.79791 14.5933 11.1324 14.1233 12.3468 13.2985L13.9952 14.9468L14.7023 14.2397L13.1502 12.6876ZM10.3487 8.59379C10.3487 8.96456 10.2478 9.31178 10.072 9.60946L7.33305 6.87052C7.63074 6.69468 7.97795 6.59379 8.34873 6.59379C9.4533 6.59379 10.3487 7.48922 10.3487 8.59379ZM9.36502 10.3167L6.62582 7.5775C6.44976 7.87532 6.34873 8.22275 6.34873 8.59379C6.34873 9.69836 7.24416 10.5938 8.34873 10.5938C8.71976 10.5938 9.06719 10.4927 9.36502 10.3167Z" fill="black"/>
</g>
<defs>
<clipPath id="clip0_61_587">
<rect width="16" height="16" fill="white" transform="translate(0.349121 0.59375)"/>
</clipPath>
</defs>
</svg>
